<svg xmlns="http://www.w3.org/2000/svg" width="855.214" height="492.171" viewBox="0 0 855.214 492.171">
  <g id="contact-img" transform="translate(-98.786 -204.64)">
    <g id="Group_5400" data-name="Group 5400" transform="translate(337.116 204.64)">
      <circle id="Ellipse_90" data-name="Ellipse 90" cx="57.01" cy="57.01" r="57.01" transform="translate(0 27.259)" fill="#f6f5f5"/>
      <circle id="Ellipse_91" data-name="Ellipse 91" cx="23.628" cy="23.628" r="23.628" transform="translate(118.624 33.414) rotate(-45)" fill="#f6f5f5"/>
      <circle id="Ellipse_92" data-name="Ellipse 92" cx="23.628" cy="23.628" r="23.628" transform="translate(480.227 198.293) rotate(-45)" fill="#f6f5f5"/>
    </g>
    <g id="Group_5401" data-name="Group 5401" transform="translate(180.969 561.909)">
      <rect id="Rectangle_554" data-name="Rectangle 554" width="198.266" height="111.604" fill="#ff9064"/>
      <rect id="Rectangle_555" data-name="Rectangle 555" width="71.04" height="111.604" fill="#b25834" opacity="0.5"/>
      <rect id="Rectangle_556" data-name="Rectangle 556" width="27.187" height="18.491" transform="translate(108.635 27.187) rotate(-90)" fill="#fff" opacity="0.3"/>
    </g>
    <g id="Group_5405" data-name="Group 5405" transform="translate(340.073 282.371)">
      <rect id="Rectangle_557" data-name="Rectangle 557" width="327.507" height="233.193" transform="translate(0 157.949)" fill="#102048"/>
      <g id="Group_5403" data-name="Group 5403" transform="translate(28.806)">
        <path id="Path_3102" data-name="Path 3102" d="M1942.4,535.206h-60.589V479.9a20.2,20.2,0,0,1,40.4-.185v.185L1922.2,515c0,.17,0,.355.015.524v1.063l.062-.031A20.179,20.179,0,0,0,1942.4,535.206Z" transform="translate(-1611.812 -459.701)" fill="#86a7ff"/>
        <path id="Path_3103" data-name="Path 3103" d="M2054.9,601.124v12.219a20.185,20.185,0,0,1-40.311,1.541Z" transform="translate(-1704.124 -558.024)" fill="#d3dfff"/>
        <path id="Path_3104" data-name="Path 3104" d="M1286.058,459.7c-.431,0-.847.015-1.263.046-.277.016-.539.031-.8.062-.293.031-.57.062-.863.108-.17.016-.339.046-.509.077-.216.031-.432.077-.632.123-.308.062-.6.123-.909.2-.432.108-.863.231-1.295.385-.215.062-.431.139-.632.216-.2.062-.416.154-.616.231a8.23,8.23,0,0,0-.848.37,8.089,8.089,0,0,0-.74.354c-.061.031-.139.062-.216.108-.216.108-.431.231-.647.354a18.375,18.375,0,0,0-2.419,1.618c-.216.169-.447.354-.647.524-.247.2-.462.4-.694.617s-.447.431-.662.647a20.53,20.53,0,0,0-1.7,1.957c-.231.308-.447.6-.662.909a22.843,22.843,0,0,0-1.772,3.251c-.123.277-.231.57-.354.863a22.962,22.962,0,0,0-.817,2.712c-.062.324-.123.632-.185.94-.108.632-.2,1.279-.246,1.926V761.676H995.856V491.2a31.494,31.494,0,0,1,31.5-31.5Z" transform="translate(-995.856 -459.701)" fill="#d3dfff"/>
        <g id="Group_5402" data-name="Group 5402" transform="translate(31.928 28.877)">
          <rect id="Rectangle_558" data-name="Rectangle 558" width="204.943" height="10.786" fill="#adc3ff"/>
          <rect id="Rectangle_559" data-name="Rectangle 559" width="189.063" height="10.786" transform="translate(0 31.589)" fill="#adc3ff"/>
          <rect id="Rectangle_560" data-name="Rectangle 560" width="179.095" height="10.786" transform="translate(0 63.178)" fill="#adc3ff"/>
          <rect id="Rectangle_561" data-name="Rectangle 561" width="204.943" height="10.786" transform="translate(0 94.767)" fill="#adc3ff"/>
          <rect id="Rectangle_562" data-name="Rectangle 562" width="111.107" height="10.786" transform="translate(79.197 126.741)" fill="#adc3ff"/>
        </g>
        <path id="Path_3105" data-name="Path 3105" d="M1424.763,1092.262a3.671,3.671,0,0,1-3.13-1.485,6.9,6.9,0,0,1-.839-4.31l1.046-27.874,1.54.057-1.046,27.874a5.514,5.514,0,0,0,.548,3.348c1.31,1.807,4.46.244,5.079-.089,3.1-1.664,5.331-4.8,7.485-7.825,2.4-3.366,4.872-6.848,8.619-8.484,2.223-.972,3.857.453,5.172,1.592a6.655,6.655,0,0,0,2.2,1.478c1.959.578,3.91.072,5.974-.468a13.9,13.9,0,0,1,5.655-.674,15.359,15.359,0,0,1,4.6,1.663c2.046,1.011,3.819,1.885,6.377,1.264,3.529-.85,6.808-2.859,9.978-4.8.919-.563,1.836-1.126,2.761-1.663,3.563-2.071,8.919-4.681,14.248-3.46l-.343,1.5c-4.806-1.1-9.795,1.35-13.131,3.291-.913.531-1.821,1.086-2.73,1.643-3.273,2.006-6.657,4.079-10.422,4.987-3.1.746-5.3-.333-7.422-1.381a14.132,14.132,0,0,0-4.144-1.521,12.712,12.712,0,0,0-5.034.641c-2.177.569-4.423,1.157-6.8.456a7.841,7.841,0,0,1-2.767-1.791c-1.375-1.192-2.278-1.893-3.547-1.345-3.354,1.465-5.6,4.623-7.979,7.966-2.257,3.172-4.591,6.454-8.012,8.289A8.654,8.654,0,0,1,1424.763,1092.262Z" transform="translate(-1291.276 -876.078)" fill="#102048"/>
        <path id="Path_3106" data-name="Path 3106" d="M1265.934,983.342V1117.6H995.856V971.646l84.366,70.189a21.346,21.346,0,0,0,16.765,4.515,32.1,32.1,0,0,1,5.316-.293l57.508,1.618a32.719,32.719,0,0,1,5.886.724,21.148,21.148,0,0,0,17.119-3.529Z" transform="translate(-995.856 -815.627)" fill="#86a7ff" opacity="0.3"/>
      </g>
      <g id="Group_5404" data-name="Group 5404" transform="translate(0 157.945)">
        <path id="Path_3107" data-name="Path 3107" d="M1024.49,1074.644l-2.25,2.5L920.6,1189.844l-19.246,21.326v-233.2Z" transform="translate(-901.349 -977.967)" fill="#6e86ff"/>
        <path id="Path_3108" data-name="Path 3108" d="M1695.062,977.98l-123.142,96.673,123.142,136.52Z" transform="translate(-1367.555 -977.976)" fill="#6e86ff"/>
        <path id="Path_3109" data-name="Path 3109" d="M1022.24,1294.177,920.6,1406.88l-19.246,4.238v-41.436c50.8-36.412,107.8-78.633,120.824-79.542Z" transform="translate(-901.349 -1195.003)" fill="#5b4dad"/>
        <path id="Path_3110" data-name="Path 3110" d="M1579.323,1294.177l101.639,112.7,19.246,4.238v-41.436c-50.8-36.412-107.8-78.633-120.824-79.542Z" transform="translate(-1372.702 -1195.003)" fill="#5b4dad"/>
        <path id="Path_3111" data-name="Path 3111" d="M1228.841,1420.574H901.334l.06-30.678,112.852-102.378a32.187,32.187,0,0,1,21.626-8.348h57.533a32.187,32.187,0,0,1,21.369,8.116l114.388,101.55Z" transform="translate(-901.334 -1187.377)" fill="#6e86ff"/>
      </g>
    </g>
    <g id="Group_5409" data-name="Group 5409" transform="translate(566.274 537.729)">
      <circle id="Ellipse_93" data-name="Ellipse 93" cx="56.244" cy="56.244" r="56.244" transform="translate(0 79.541) rotate(-45)" fill="#5b4dad" opacity="0.4"/>
      <g id="Group_5408" data-name="Group 5408" transform="translate(16.95 0)">
        <g id="Group_5406" data-name="Group 5406" transform="translate(0)">
          <circle id="Ellipse_94" data-name="Ellipse 94" cx="56.244" cy="56.244" r="56.244" transform="translate(0 79.541) rotate(-45)" fill="#ffbf00"/>
        </g>
        <g id="Group_5407" data-name="Group 5407" transform="translate(50.185 49.065)">
          <path id="Path_3112" data-name="Path 3112" d="M1892.01,1519.559a9.5,9.5,0,0,1-7.057-3.137l-19.9-21.972a4.623,4.623,0,1,1,6.853-6.206l19.9,21.97a.277.277,0,0,0,.268.093.26.26,0,0,0,.223-.173l21.419-48.762a4.623,4.623,0,1,1,8.466,3.717l-21.419,48.762a9.57,9.57,0,0,1-8.752,5.708Z" transform="translate(-1863.859 -1458.608)"/>
        </g>
      </g>
    </g>
    <g id="Group_5414" data-name="Group 5414" transform="translate(207.421 230.736)">
      <g id="Group_5411" data-name="Group 5411" transform="translate(0 104.905)">
        <path id="Path_3113" data-name="Path 3113" d="M679.267,1256.222l1.8,31.075h47.769l-21.573-17.721-1.284-13.355L697.5,1248Z" transform="translate(-614.292 -1061.033)" fill="#102048"/>
        <g id="Group_5410" data-name="Group 5410" transform="translate(0 43.665)">
          <path id="Path_3114" data-name="Path 3114" d="M473.767,1215.989l-7.7,27.737,39.294,17.207-11.557-26.2,2.825-11.814-9.759-12.841Z" transform="translate(-466.062 -1078.333)" fill="#102048"/>
          <path id="Path_3115" data-name="Path 3115" d="M506.218,777.773s-4.623,19.262-3.082,61.637c0,0-13.612,47.512-12.071,76.019l22.857,6.934c11.975-26.609,21.824-52.208,27.06-75.617a41.5,41.5,0,0,0-.142-25.413l-10.995-33.544Z" transform="translate(-483.361 -777.773)" fill="#1f3c88"/>
        </g>
        <path id="Path_3116" data-name="Path 3116" d="M591.2,740.68l-3.621,89h-26.7a397.522,397.522,0,0,1-10.463-70.312c-.755-13.976-.324-22.143-.324-22.143-17.166-20.263-27.367-34.9-33.3-45.735-8.814-16.072-8.275-23.807-7.289-29.262,1.325-7.258,6.04-16.657,9.23-22.436,1.787-3.205,3.1-5.3,3.1-5.3l44.687,14.392-5.331,19.277-.093.324a11.292,11.292,0,0,0,1.094,8.614l23.438,40.819A42.3,42.3,0,0,1,591.2,740.68Z" transform="translate(-495.898 -634.495)" fill="#3a6bea"/>
        <path id="Path_3117" data-name="Path 3117" d="M666.414,839.5h-.037a.577.577,0,0,1-.54-.613c.056-.892,5.564-89.391-.976-103.477a102.658,102.658,0,0,0-5.352-9.288c-9.44-15.3-25.239-40.907-21.921-77.812a.569.569,0,0,1,.627-.524.578.578,0,0,1,.524.628c-3.282,36.521,12.39,61.924,21.754,77.1a103.333,103.333,0,0,1,5.418,9.409c6.663,14.35,1.311,100.38,1.08,104.035A.577.577,0,0,1,666.414,839.5Z" transform="translate(-585.001 -643.733)" fill="#1f3c88"/>
        <path id="Path_3118" data-name="Path 3118" d="M588.78,648.887l-5.331,19.277A134.829,134.829,0,0,1,541,639.8c1.787-3.205,3.1-5.3,3.1-5.3Z" transform="translate(-518.159 -634.495)" fill="#1f3c88" opacity="0.6"/>
        <path id="Path_3119" data-name="Path 3119" d="M721.534,1304.658l-.455-7.72,14.727-.266a.548.548,0,0,1,.588.567.578.578,0,0,1-.567.588l-13.523.245.316,5.378,13.684-.616a.585.585,0,0,1,.6.552.578.578,0,0,1-.551.6Z" transform="translate(-643.361 -1094.87)" fill="#fff"/>
        <path id="Path_3120" data-name="Path 3120" d="M527.754,1266.755a.59.59,0,0,1-.176-.027l-12.677-4.046,3.162-7.378,11.171,4.038a.578.578,0,1,1-.393,1.086l-10.146-3.667-2.231,5.208,11.464,3.658a.578.578,0,0,1-.175,1.128Z" transform="translate(-500.017 -1066.108)" fill="#fff"/>
      </g>
      <g id="Group_5412" data-name="Group 5412" transform="translate(59.973)">
        <path id="Path_3121" data-name="Path 3121" d="M689.294,379.937l-.832,3.113-3.328,12.589-2.25,8.444-20.032-7.2,9.662-19.77,4.715-6.811Z" transform="translate(-662.851 -345.914)" fill="#f9b384"/>
        <path id="Path_3122" data-name="Path 3122" d="M728.342,407.973l-3.328,12.589a18.8,18.8,0,0,1-4.7-14.408Z" transform="translate(-702.731 -370.838)" fill="#102048"/>
        <path id="Path_3123" data-name="Path 3123" d="M730.968,327.958s-1.284,28.507-15.666,26.067-14.125-26.966-14.125-26.966l18.748-6.035Z" transform="translate(-689.497 -311.651)" fill="#f9b384"/>
        <path id="Path_3124" data-name="Path 3124" d="M696.338,310.878s8.25-8.507,19.968-4.3c0,0,5.169,2.183,7.191-2.055,0,0-16.565-21.958-29.567-11.364,0,0-23.306,5.1-9.438,28.315Z" transform="translate(-674.834 -290.269)" fill="#102048"/>
        <ellipse id="Ellipse_95" data-name="Ellipse 95" cx="4.425" cy="5.072" rx="4.425" ry="5.072" transform="matrix(0.988, -0.157, 0.157, 0.988, 16.587, 16.939)" fill="#f9b384"/>
        <circle id="Ellipse_96" data-name="Ellipse 96" cx="2.568" cy="2.568" r="2.568" transform="translate(36.471 32.814) rotate(-80.807)" fill="#f9b384"/>
        <circle id="Ellipse_97" data-name="Ellipse 97" cx="4.43" cy="4.43" r="4.43" transform="translate(25.035 23.627)" fill="#eb5d60" opacity="0.4"/>
      </g>
      <path id="Path_3125" data-name="Path 3125" d="M975.52,507.406s2.65,3.637-2.758,7.273c0,0,4.3,2.943-10.524,7.8-1.649.539-3.529,1.094-5.686,1.68l-5.948-21.6s26.458-8.937,27.12-6.071-4.731,6.734-4.731,6.734S982.469,500.888,975.52,507.406Z" transform="translate(-802.936 -433.243)" fill="#f9b384"/>
      <path id="Path_3126" data-name="Path 3126" d="M644.46,460.163l-31.328,4.015s-45.072-32.1-54.318-29.021-40.449,53.162-40.449,53.162-8.475,2.7-8.09,6.164,55.088,31.846,62.408,24.655c4.6-4.522,9.887-40.578,9.887-40.578l19.935,8.291a30.8,30.8,0,0,0,18.681,1.591l29.229-6.667Z" transform="translate(-496.792 -390.857)" fill="#fbc343"/>
      <g id="Group_5413" data-name="Group 5413" transform="translate(27.207 54.748)" opacity="0.8">
        <path id="Path_3127" data-name="Path 3127" d="M931.252,538.874c-1.076-4.207-2.126-8.312-3.082-12.259-.266-1.1-.51-2.222-.754-3.349q-.311-1.431-.645-2.864l-1.153.148c.233.985.455,1.974.669,2.961.247,1.137.492,2.269.761,3.377.956,3.952,2.007,8.061,3.085,12.273q.493,1.926.987,3.866l1.127-.257Q931.749,540.818,931.252,538.874Z" transform="translate(-812.772 -505.016)" fill="#fff"/>
        <path id="Path_3128" data-name="Path 3128" d="M673.069,472.46c-.476.1-.952.208-1.428.307-8.682,1.81-17.968,3.272-27.052,1.736a35.03,35.03,0,0,1-12.454-4.588c-.244.3-.485.6-.732.9a36.132,36.132,0,0,0,12.993,4.823c9.272,1.568,18.687.087,27.481-1.743.872-.182,1.743-.375,2.614-.563Q673.783,472.9,673.069,472.46Z" transform="translate(-608.222 -469.915)" fill="#fff"/>
        <path id="Path_3129" data-name="Path 3129" d="M608.182,602.98a45.561,45.561,0,0,1-7.926.2c-7.7-.717-14.523-5.5-18.988-9.044-1.583-1.254-3.133-2.557-4.683-3.861a82.328,82.328,0,0,0-12.612-9.3,32.186,32.186,0,0,0-7.978-3.165l-.659,1.014a30.911,30.911,0,0,1,8.076,3.161,81.527,81.527,0,0,1,12.43,9.172c1.558,1.31,3.117,2.621,4.708,3.882,4.581,3.63,11.6,8.543,19.6,9.289a46.658,46.658,0,0,0,8.128-.195c.263-.022.527-.033.79-.055q.136-.585.268-1.177C608.951,602.931,608.567,602.948,608.182,602.98Z" transform="translate(-555.336 -544.928)" fill="#fff"/>
      </g>
      <path id="Path_3130" data-name="Path 3130" d="M729.015,569.932l-8.115-3.559s2.072,12.892,5.986,14.734Z" transform="translate(-643.237 -482.228)" fill="#e49b31"/>
      <path id="Path_3131" data-name="Path 3131" d="M962.237,537.62c-1.649.539-3.529,1.094-5.686,1.68L950.6,517.7Z" transform="translate(-802.936 -448.386)" fill="#e28b6d"/>
    </g>
    <g id="Group_5425" data-name="Group 5425" transform="translate(701.801 319.929)">
      <g id="Group_5416" data-name="Group 5416" transform="translate(0 49.329)">
        <g id="Group_5415" data-name="Group 5415" transform="translate(21.445)">
          <path id="Path_3132" data-name="Path 3132" d="M2158.643,913.433l18.876,8.475,14.067-46.305-18.424-4.842C2168.292,881.645,2163.328,895.578,2158.643,913.433Z" transform="translate(-2158.643 -832.374)" fill="#e28b6d"/>
          <path id="Path_3133" data-name="Path 3133" d="M2206.283,783.189l18.424,4.842,15.725-43.2S2221.427,742.266,2206.283,783.189Z" transform="translate(-2191.764 -744.802)" fill="#102048"/>
        </g>
        <path id="Path_3134" data-name="Path 3134" d="M2101.888,958.112l-13.612,37.5,50.851,19.518L2149.4,976.09Z" transform="translate(-2088.277 -893.105)" fill="#102048"/>
        <path id="Path_3135" data-name="Path 3135" d="M2149.933,1082.251c-.371,1.061-3.415,2.329-5.368.6-3.8-.674-6.376-1.156-8.749-3.78a3.687,3.687,0,0,1-2.114-5.1c1.868-3.745,4.762-9.024,6.136-8.815,1.728.262.478,5.594.478,5.594s2.88-6.765,5.611-5.871c1.218.4-1.711,6.841-2.008,7.52.461-.616,4.114-5.532,5.512-4.5,1.4,1.048-2.007,6.857-2.369,7.474.4-.493,3.6-4.361,5.167-3.082C2152.906,1072.857,2151.842,1076.786,2149.933,1082.251Z" transform="translate(-2119.592 -967.277)" fill="#e28b6d"/>
      </g>
      <g id="Group_5420" data-name="Group 5420" transform="translate(40.321 119.216)">
        <path id="Path_3136" data-name="Path 3136" d="M2501.2,1487.477s24.655-2.7,35.056-25.425l-27.351,1.541Z" transform="translate(-2415.683 -1313.353)" fill="#102048"/>
        <g id="Group_5417" data-name="Group 5417" transform="translate(89.117 148.956)">
          <path id="Path_3137" data-name="Path 3137" d="M2536.63,1462.9,2513,1477.534l10.628,15.613,22.784-15.523Z" transform="translate(-2513.002 -1462.895)" fill="#e28b6d"/>
          <path id="Path_3138" data-name="Path 3138" d="M2585.274,1533.221l-14.613-22-22.784,15.523,3.882,5.7-2.312,30.433Z" transform="translate(-2537.248 -1496.496)" fill="#102048"/>
          <rect id="Rectangle_563" data-name="Rectangle 563" width="11.582" height="1.54" transform="translate(14.471 35.187) rotate(-2.912)" fill="#fff"/>
        </g>
        <g id="Group_5418" data-name="Group 5418" transform="translate(0 189.02)">
          <path id="Path_3139" data-name="Path 3139" d="M2310.567,1595.9l-25.939-1.541v21l27.9-1.771Z" transform="translate(-2265.109 -1594.357)" fill="#e28b6d"/>
          <path id="Path_3140" data-name="Path 3140" d="M2240.1,1659.231v4.937l-19.518,19.518h50.337L2268,1657.459Z" transform="translate(-2220.582 -1638.228)" fill="#102048"/>
          <rect id="Rectangle_564" data-name="Rectangle 564" width="1.541" height="12.781" transform="matrix(0.502, -0.865, 0.865, 0.502, 18.542, 26.991)" fill="#fff"/>
        </g>
        <path id="Path_3141" data-name="Path 3141" d="M2268.063,1031.2c-.4,9.554-.478,19.632-.308,29.786.154,8.814.478,17.69.94,26.365,2.219,43.1,7.35,81.268,7.35,81.268l-40.064,5.147c-19-132.519-6.673-188.517-6.673-188.517l17.459-3.56,15.5-3.159,17.382-3.544c-.216.324-.431.663-.632,1.017-2.651,4.33-4.746,10.093-6.364,16.935C2270.112,1003.583,2268.7,1016.8,2268.063,1031.2Z" transform="translate(-2223.916 -974.721)" fill="#3a6bea"/>
        <path id="Path_3142" data-name="Path 3142" d="M2340.935,1197.483c-16.8-35.7-10.494-64.087-10.494-64.087l9.862,7.936c-.4,9.554-.478,19.631-.308,29.786C2340.149,1179.932,2340.473,1188.808,2340.935,1197.483Z" transform="translate(-2296.156 -1084.857)" fill="#1f3c88"/>
        <path id="Path_3143" data-name="Path 3143" d="M2393.011,1122.823c-19.261,7.319-35.056,25.425-35.056,25.425-16.627-29.385-30.818-58.894-41.682-87.863-9.045-24.1-15.779-47.83-19.678-70.79-.477-2.851-.925-5.686-1.31-8.506-.046-.262-.093-.539-.123-.8l15.625-2.358,16.75-2.527,8.459-1.279c.909,5.393,2.127,11.033,3.591,16.842C2354.164,1048.967,2393.011,1122.823,2393.011,1122.823Z" transform="translate(-2272.433 -974.124)" fill="#3a6bea"/>
        <g id="Group_5419" data-name="Group 5419" transform="translate(1.787 26.348)" opacity="0.8">
          <path id="Path_3144" data-name="Path 3144" d="M2458.186,1109.051q-.367-.913-.733-1.828a48.971,48.971,0,0,1-8.777-6.908,35.535,35.535,0,0,1-9.586-28.8,33.97,33.97,0,0,1,2.613-9.249c-.164-.562-.323-1.122-.483-1.682a35.35,35.35,0,0,0-3.276,10.78,36.722,36.722,0,0,0,9.905,29.761A53.113,53.113,0,0,0,2458.186,1109.051Z" transform="translate(-2373.29 -1060.58)" fill="#fff"/>
          <path id="Path_3145" data-name="Path 3145" d="M2474.654,1368.283l-.485-1.029c-4.251,1.736-9.344,2.034-14.63,2.335-5.336.3-10.853.617-15.691,2.5a24.4,24.4,0,0,0-11.5,9.53c.2.408.4.816.6,1.224a23.427,23.427,0,0,1,11.32-9.676c4.668-1.819,10.091-2.128,15.335-2.426C2464.819,1370.447,2470.144,1370.134,2474.654,1368.283Z" transform="translate(-2369.601 -1273.793)" fill="#fff"/>
          <path id="Path_3146" data-name="Path 3146" d="M2241.6,1343.674c12.816,6.507,23.2,17.414,32.375,27.646-.052-.63-.1-1.266-.155-1.9-9-9.974-19.172-20.414-31.7-26.772a54.109,54.109,0,0,0-12.22-4.473q.036.6.073,1.21A53.063,53.063,0,0,1,2241.6,1343.674Z" transform="translate(-2228.851 -1253.574)" fill="#fff"/>
          <path id="Path_3147" data-name="Path 3147" d="M2289.323,1535.445a21.532,21.532,0,0,1-9.609-.107,64.58,64.58,0,0,1-8.826-3,62.071,62.071,0,0,0-9.458-3.159,31.109,31.109,0,0,0-13.866.223c.045.382.094.772.14,1.156a29.978,29.978,0,0,1,13.479-.25,61.179,61.179,0,0,1,9.281,3.1,65.316,65.316,0,0,0,8.985,3.052,22.826,22.826,0,0,0,10,.134C2289.408,1536.222,2289.366,1535.83,2289.323,1535.445Z" transform="translate(-2241.129 -1385.9)" fill="#fff"/>
          <path id="Path_3148" data-name="Path 3148" d="M2235.725,1149.79a26.8,26.8,0,0,1-9.261,21.256c.016.489.034.991.051,1.485a27.1,27.1,0,0,0-.013-42.695q-.029.72-.055,1.455A26.652,26.652,0,0,1,2235.725,1149.79Z" transform="translate(-2226.447 -1108.73)" fill="#fff"/>
        </g>
        <path id="Path_3149" data-name="Path 3149" d="M2300.04,990.966a95.61,95.61,0,0,1-18.414,1.371,150.729,150.729,0,0,1-43.346-7.689l17.459-3.559c-.046-.262-.093-.539-.123-.8l15.625-2.358,17.382-3.544c-.216.324-.431.662-.632,1.017l8.459-1.279C2297.358,979.517,2298.576,985.157,2300.04,990.966Z" transform="translate(-2232.886 -974.124)" fill="#1f3c88" opacity="0.4"/>
        <path id="Path_3150" data-name="Path 3150" d="M2306.019,1165.448a.769.769,0,0,1-.726-.512l-11.131-31.3-13.378-8.076a.77.77,0,1,1,.8-1.318l13.847,8.359,11.314,31.818a.769.769,0,0,1-.466.984A.739.739,0,0,1,2306.019,1165.448Z" transform="translate(-2262.179 -1078.417)" fill="#1f3c88"/>
      </g>
      <g id="Group_5422" data-name="Group 5422" transform="translate(40.321 31.934)">
        <path id="Path_3151" data-name="Path 3151" d="M2290.694,818.4c-25.81,9.816-70.112,4.3-70.112,4.3,1.8-18.753,1.926-74.226,30.819-81.161l12.913,1.356c6.764,2.65,12.05,12.759,16.026,24.763a197.809,197.809,0,0,1,5.81,22.312C2289.323,805.3,2290.694,818.4,2290.694,818.4Z" transform="translate(-2220.582 -725.137)" fill="#1f3c88"/>
        <path id="Path_3152" data-name="Path 3152" d="M2402.154,847.97c-12.158-7.073-14.716-23.006-14.716-23.006l8.907.694A197.819,197.819,0,0,1,2402.154,847.97Z" transform="translate(-2336.588 -783.14)" fill="#102048"/>
        <g id="Group_5421" data-name="Group 5421" transform="translate(41.99)">
          <path id="Path_3153" data-name="Path 3153" d="M2360.1,745.956l-1.733,24.847,26.52,14.163,5.369-25.743C2366.938,745.448,2360.1,745.956,2360.1,745.956Z" transform="translate(-2358.365 -728.208)" fill="#1f3c88"/>
          <path id="Path_3154" data-name="Path 3154" d="M2471.116,739.628a17.827,17.827,0,0,1-2.142,2.666,17.639,17.639,0,0,1-5.069,3.667,18,18,0,0,1-16.349-.323l-2.173-1.156,5.378-25.749c1.433.863,2.928,1.757,4.515,2.728,0,0,20.987-29.663,22.529-29.077,1.387.509-.971,5.1-1.448,6.01.909-1.341,7.72-11.326,9.538-10.632,1.448.539-.385,4.977-.616,5.516.416-.6,4.068-5.979,6.272-4.684,1.017.6-2.913,6.426-3.3,7.011.478-.462,4.838-4.684,5.917-3.421,1.11,1.279-3.128,6.318-3.606,6.888.431-.386,4.16-3.637,5.347-2.065C2497.466,699.024,2478.39,728.533,2471.116,739.628Z" transform="translate(-2418.864 -687.726)" fill="#e28b6d"/>
        </g>
        <path id="Path_3155" data-name="Path 3155" d="M2490.348,857.956a17.638,17.638,0,0,1-5.07,3.667,17.958,17.958,0,0,1-8.953,1.772,7.021,7.021,0,0,1-.2-1.71,7.6,7.6,0,0,1,14.223-3.729Z" transform="translate(-2398.247 -803.388)" fill="#eb5d60" opacity="0.4"/>
        <path id="Path_3156" data-name="Path 3156" d="M2248.364,974.789c-11.39,0-21.6-.729-26.6-1.157-.341-.029-.548-.047-.6-.05a.583.583,0,0,1-.558-.591.572.572,0,0,1,.572-.565c.039,0,.276.018.688.054,11.408.978,49.981,3.529,67.447-4.622a.578.578,0,1,1,.488,1.047C2279.8,973.569,2263.093,974.789,2248.364,974.789Z" transform="translate(-2220.595 -882.448)" fill="#86a7ff"/>
        <path id="Path_3157" data-name="Path 3157" d="M2311.085,787.62a10.734,10.734,0,0,1-8.879-4.108.578.578,0,0,1,.971-.628c.2.306,5.037,7.412,17.219.833a.578.578,0,1,1,.548,1.017A20.889,20.889,0,0,1,2311.085,787.62Z" transform="translate(-2277.267 -753.702)" fill="#86a7ff"/>
      </g>
      <g id="Group_5424" data-name="Group 5424" transform="translate(61.097)">
        <path id="Path_3158" data-name="Path 3158" d="M2380.659,584.319c3.236-1.819,7.6-1.982,10.473.372,1.5,1.228,2.457,2.99,3.846,4.339,2.977,2.892,7.608,3.618,10.459,6.633a11.793,11.793,0,0,1,2.77,8.924,30.876,30.876,0,0,1-2.537,9.234c-1.7,4.249-3.67,8.564-7.073,11.625a10.414,10.414,0,0,1-4.529,2.537,6.044,6.044,0,0,1-4.993-.924,6.641,6.641,0,0,1-2.312-4.851,19.675,19.675,0,0,1,.655-5.48,2.921,2.921,0,0,0,4.433-2.835c-.22-1.838-2.033-2.994-3.656-3.883l-8.075-4.424a15.49,15.49,0,0,1-4.37-3.1c-1.981-2.255-3.57-7.215-2.26-10.062A18.559,18.559,0,0,1,2380.659,584.319Z" transform="translate(-2347.334 -582.939)" fill="#fbb81d"/>
        <path id="Path_3159" data-name="Path 3159" d="M2293.266,604.1s-.165-18.257,22.508-13.446a16.814,16.814,0,0,1,9.659,5.935c3.689,4.566,6.053,23.76-4.494,29.085C2307.712,632.352,2293.266,604.1,2293.266,604.1Z" transform="translate(-2291.891 -587.742)" fill="#fbc343"/>
        <path id="Path_3160" data-name="Path 3160" d="M2328.37,687.182l-.524,18.337a8.954,8.954,0,0,1-8.475,8.676c-.154.015-.308.015-.462.015a8.955,8.955,0,0,1-8.906-9.723l.031-.293,1.2-13.93,1.525-.277Z" transform="translate(-2303.504 -655.413)" fill="#e28b6d"/>
        <path id="Path_3161" data-name="Path 3161" d="M2320.75,700.129a21.314,21.314,0,0,1-10.571,10.463l1.2-13.93,1.526-.277Z" transform="translate(-2303.649 -661.811)" fill="#102048"/>
        <path id="Path_3162" data-name="Path 3162" d="M2290.129,615.967s-5.779,24.077,6.356,25.233,17.142-9.823,17.142-9.823l1.541-13.676-7.512-10.786-11.942,3.659Z" transform="translate(-2288.754 -599.608)" fill="#e28b6d"/>
        <path id="Path_3163" data-name="Path 3163" d="M2293.266,612.451s11.164-6.263,15.216,2.119c2.825,5.843,7.127,9.053,11.365,7.127s.77-15.795.77-15.795l-15.794-4.045-9.438,5.393Z" transform="translate(-2291.891 -596.092)" fill="#fbc343"/>
        <ellipse id="Ellipse_98" data-name="Ellipse 98" cx="5.275" cy="4.36" rx="5.275" ry="4.36" transform="translate(18.315 28.528) rotate(-59.999)" fill="#e28b6d"/>
        <path id="Path_3164" data-name="Path 3164" d="M2365.071,665.634l-.029,0a.385.385,0,0,1-.355-.411c.1-1.367.962-3.953,3.531-3.953a.385.385,0,0,1,0,.77c-2.492,0-2.753,3.107-2.763,3.238A.386.386,0,0,1,2365.071,665.634Z" transform="translate(-2341.546 -637.397)" fill="#102048"/>
        <g id="Group_5423" data-name="Group 5423" transform="translate(0.223 20.802)">
          <path id="Path_3165" data-name="Path 3165" d="M2294.811,662.749a.984.984,0,1,1-.984-.983A.984.984,0,0,1,2294.811,662.749Z" transform="translate(-2291.821 -658.545)" fill="#102048"/>
          <circle id="Ellipse_99" data-name="Ellipse 99" cx="1.091" cy="1.091" r="1.091" transform="translate(8.439 3.037)" fill="#102048"/>
          <path id="Path_3166" data-name="Path 3166" d="M2301.688,672.209a1.791,1.791,0,0,1-1.723-.8c-.763-1.389,1-4,1.365-4.5a.386.386,0,0,1,.629.447c-.939,1.317-1.693,3.005-1.318,3.685.161.3.584.425,1.24.394h.021a.385.385,0,0,1,.021.77C2301.841,672.207,2301.762,672.209,2301.688,672.209Z" transform="translate(-2296.639 -662.007)" fill="#102048"/>
          <circle id="Ellipse_100" data-name="Ellipse 100" cx="3.443" cy="3.443" r="3.443" transform="translate(10.498 6.671) rotate(-22.5)" fill="#eb5d60" opacity="0.4"/>
          <path id="Path_3167" data-name="Path 3167" d="M2303.007,690.84a4.207,4.207,0,0,1-1.815-.39.385.385,0,0,1,.354-.684,3.866,3.866,0,0,0,4.319-.913.385.385,0,1,1,.521.567A4.916,4.916,0,0,1,2303.007,690.84Z" transform="translate(-2297.481 -677.307)" fill="#102048"/>
          <path id="Path_3168" data-name="Path 3168" d="M2293.651,654.441a9.771,9.771,0,0,0-1.993-.354,2.653,2.653,0,0,0-.877.1,5.2,5.2,0,0,0-.937.354l-.037.014a.235.235,0,0,1-.3-.134.238.238,0,0,1,0-.18,2.062,2.062,0,0,1,.868-.978,2.6,2.6,0,0,1,1.324-.317,3.076,3.076,0,0,1,2.218,1.134.234.234,0,0,1-.233.372Z" transform="translate(-2289.486 -652.409)" fill="#102048"/>
          <path id="Path_3169" data-name="Path 3169" d="M2312.45,652.894a3.479,3.479,0,0,1,2.667-1.691,2.962,2.962,0,0,1,1.655.368,3.078,3.078,0,0,1,1.14,1.121.233.233,0,0,1-.291.334l-.025-.011a8.39,8.39,0,0,0-1.234-.521,2.674,2.674,0,0,0-1.166-.148,5.742,5.742,0,0,0-2.411.852l-.028.015a.23.23,0,0,1-.307-.318Z" transform="translate(-2305.43 -651.197)" fill="#102048"/>
        </g>
      </g>
    </g>
    <rect id="Rectangle_565" data-name="Rectangle 565" width="855.214" height="1.541" transform="translate(98.786 672.852)" fill="#102048"/>
  </g>
</svg>
