<svg xmlns="http://www.w3.org/2000/svg" xmlns:xlink="http://www.w3.org/1999/xlink" id="Layer_1" x="0px" y="0px" width="1051px" height="812px" viewBox="0 0 1051 812" xml:space="preserve">
<g>
	<path fill="#FFB27D" d="M755.522,289.509c-0.086-0.201-0.189-0.417-0.311-0.644c-0.406-1.583-3.96-9.98-4.354-10.901   c-1.117-2.615-2.943-1.225-2.943,0.728c0,0.604,0.256,4.916,0.105,5.539c-3.017-2.223-4.876-4.533-12.66-6.732   c0,0-5.938-1.953-3.082,4.031c1.91,3.998,4.183,4.499,6.963,10.093c2.779,5.594,7.917,9.438,12.515,9.089l4.934,1.67l4.988-7.378   l-3.206-1.982C757.137,292.197,756.135,290.952,755.522,289.509z"></path>
	<g>
		<g>
			<rect x="454.459" y="114.601" fill="#EEF6FF" width="292.264" height="420.573"></rect>
			<g>
				<rect x="530.599" y="158.458" fill="#F99746" width="133.216" height="6.915"></rect>
				<rect x="513.381" y="174.509" fill="#F99746" width="66.607" height="6.917"></rect>
				<rect x="588.024" y="174.509" fill="#F99746" width="97.76" height="6.917"></rect>
			</g>
			<g>
				<rect x="520.545" y="330.313" fill="#AEC3FF" width="143.727" height="5.265"></rect>
				<g>
					<rect x="596.338" y="316.261" fill="#AEC3FF" width="101.77" height="5.268"></rect>
					<rect x="486.71" y="316.261" fill="#AEC3FF" width="99.141" height="5.268"></rect>
				</g>
				<g>
					<rect x="600.591" y="302.211" fill="#AEC3FF" width="87.553" height="5.265"></rect>
					<rect x="496.676" y="302.211" fill="#AEC3FF" width="87.554" height="5.265"></rect>
				</g>
			</g>
			<g>
				<g>
					<path fill="#A8C3F7" d="M615.866,382.251h-42.264c-1.915,0-3.485-1.566-3.485-3.485l0,0c0-1.917,1.57-3.486,3.485-3.486h42.264       c1.918,0,3.484,1.569,3.484,3.486l0,0C619.351,380.685,617.784,382.251,615.866,382.251z"></path>
					<path fill="#A8C3F7" d="M674.822,382.251h-42.264c-1.916,0-3.487-1.566-3.487-3.485l0,0c0-1.917,1.571-3.486,3.487-3.486       h42.264c1.915,0,3.485,1.569,3.485,3.486l0,0C678.308,380.685,676.737,382.251,674.822,382.251z"></path>
				</g>
				<g opacity="0.6">
					<g>
						<path fill="#2B478B" d="M623.201,474.846c-20.994,0-38.073-17.08-38.073-38.074c0-20.992,17.079-38.072,38.073-38.072        c20.995,0,38.072,17.08,38.072,38.072C661.273,457.766,644.196,474.846,623.201,474.846z M623.201,400.619        c-19.935,0-36.153,16.219-36.153,36.152c0,19.936,16.219,36.152,36.153,36.152s36.152-16.217,36.152-36.152        C659.354,416.838,643.136,400.619,623.201,400.619z"></path>
					</g>
					<g>
						<path fill="#2B478B" d="M623.201,467.449c-16.918,0-30.679-13.76-30.679-30.678c0-16.917,13.761-30.677,30.679-30.677        c16.917,0,30.677,13.76,30.677,30.677C653.878,453.689,640.118,467.449,623.201,467.449z M623.201,408.012        c-15.858,0-28.759,12.903-28.759,28.76c0,15.857,12.9,28.758,28.759,28.758c15.857,0,28.761-12.9,28.761-28.758        C651.962,420.915,639.059,408.012,623.201,408.012z"></path>
					</g>
					<g>
						<path fill="#2B478B" d="M623.607,448.807c-3.988,1.291-7.874,1.964-10.932,1.71c-4.662-0.386-7.282-2.831-7.389-6.874        c-0.083-3.21,1.25-6.021,3.863-8.302c-0.025-0.221-0.047-0.437-0.064-0.658c-0.171-2.261,0.313-3.766,1.438-4.466        c1.82-1.136,4.523,0.415,4.636,0.48l-0.603,1.033c-0.606-0.352-2.405-1.128-3.401-0.501c-0.856,0.54-0.962,2.021-0.886,3.224        c2.124-1.539,4.9-2.796,8.284-3.709c2.504-0.679,5.288-1.129,7.806-1.333c0.016-0.283,0.039-0.534,0.069-0.742        c0.081-0.555,0.274-1.203,0.818-1.334c0.21-0.046,0.609-0.041,0.966,0.504c0.229,0.35,0.345,0.854,0.367,1.455        c0.868-0.019,1.673-0.003,2.387,0.047c0.009-0.015,0.016-0.03,0.021-0.046c-0.173-1.419-0.052-3.09,0.186-4.168        c0.302-1.385,0.798-2.085,1.497-2.153c0.42-0.038,0.781,0.187,0.951,0.589c0.389,0.937-0.346,3.475-1.401,5.908        c0,0.006,0,0.01,0.001,0.016c0.992,0.167,1.665,0.444,1.876,0.826c0.163,0.288,0.185,0.733-0.236,1.122        c-0.803,0.738-1.442,0.554-1.756,0.377c-0.26-0.151-0.47-0.407-0.64-0.735c-0.799,1.582-1.674,2.938-2.357,3.512        c-0.632,0.531-1.187,0.318-1.396,0.204c-0.105-0.063-0.208-0.145-0.301-0.243c-0.272,0.665-0.579,1.306-0.912,1.885        c-1.252,2.2-2.66,3.329-4.076,3.261c-0.581-0.025-1.094-0.257-1.529-0.677c-0.784,1.697-1.765,3.313-2.744,4.517        c-0.993,1.228-2.264,1.677-3.575,1.267c-2.321-0.724-4.42-4.084-5.206-8.064c-1.986,1.943-2.951,4.24-2.884,6.875        c0.089,3.451,2.205,5.371,6.288,5.711c10.313,0.862,28.39-8.725,29.761-15.779l0,0        C641.418,439.279,632.841,445.814,623.607,448.807z M610.418,435.818c0.629,4.201,2.73,7.285,4.513,7.842        c0.838,0.259,1.607-0.038,2.289-0.88c1.162-1.434,2.165-3.2,2.883-4.927c-0.209-0.443-0.375-0.966-0.498-1.563        c-0.29-1.382-0.334-3.281,0.005-4.584c-1.925,0.477-3.856,1.119-5.646,1.964C612.599,434.318,611.412,435.036,610.418,435.818        z M621.425,437.784c0.255,0.389,0.599,0.695,1.053,0.713c0.905,0.041,1.997-0.926,2.984-2.655        c0.513-0.903,0.925-1.862,1.233-2.787c-0.2-0.752-0.301-1.627-0.336-2.435c-1.326,0.107-2.772,0.285-4.261,0.555        C622.872,432.688,622.424,435.238,621.425,437.784z M627.944,433.073c0.187,0.563,0.354,0.671,0.355,0.675        c0.668-0.575,1.431-1.819,2.126-3.239c-0.565-0.021-1.209-0.023-1.902-0.007C628.427,431.302,628.221,432.187,627.944,433.073        z M620.92,431.536c-0.305,0.635-0.524,2.668-0.153,4.475C621.367,434.027,621.489,432.313,620.92,431.536z M632.702,430.772        c0.005,0.003,0.005,0,0.009,0.003C632.707,430.775,632.707,430.772,632.702,430.772z M632.526,424.631        c-0.107,0.307-0.207,0.744-0.285,1.255C632.384,425.39,632.482,424.962,632.526,424.631z"></path>
					</g>
				</g>
			</g>
		</g>
		<g>
			<rect x="512.168" y="266.342" fill="#AEC3FF" width="160.483" height="5.264"></rect>
			<g>
				<rect x="596.794" y="252.29" fill="#AEC3FF" width="113.639" height="5.265"></rect>
				<rect x="474.384" y="252.29" fill="#AEC3FF" width="110.702" height="5.265"></rect>
			</g>
			<g>
				<rect x="601.544" y="238.237" fill="#AEC3FF" width="97.762" height="5.267"></rect>
				<rect x="485.514" y="238.237" fill="#AEC3FF" width="97.76" height="5.267"></rect>
			</g>
		</g>
	</g>
	<g>
		<path fill="#91CECF" d="M874.895,276.366c0,0,24.572,94.125-50.135,78.479c-20.167-4.223-73.901-57.77-73.901-57.77    s5.172-8.158,11.536-7.291c0,0,51.913,16.878,60.214,22.989c4.599,3.385,9.852-49.94,25.752-49.183    C864.26,264.349,874.895,276.366,874.895,276.366z"></path>
		<path fill="#163560" d="M908.562,674.38c0,0-1.373,22.14-5.656,22.457c-0.57,0.041-21.727,0.041-21.727,0.041l-27.002-0.156    c0,0,0.178-6.507,8.071-7.882c7.895-1.376,21.104-6.923,25.886-17.356C893.164,660.51,908.562,674.38,908.562,674.38z"></path>
		<path fill="#2B478B" d="M910.114,675.915c0,0-8.207,2.747-14.616,2.747c-7.148,0-13.646-1.945-13.646-1.945    s-1.544-14.945-10.051-47.877c-4.457-17.263-10.825-39.454-19.884-67.033c-25.048-76.214-32.666-120.799-33.363-125.023    c-0.035-0.222-0.053-0.332-0.053-0.332l0.084-0.039l77.005-33.81c0,0-9.516,105.041,2.627,145.36    c1.701,5.638,3.158,12.202,4.407,19.317C910.294,611.076,910.114,675.915,910.114,675.915z"></path>
		<path fill="#233862" d="M902.624,567.28l-30.823,61.56c-4.457-17.263-10.825-39.454-19.884-67.033    c-25.048-76.214-32.666-120.799-33.363-125.023c0.01-0.126,0.017-0.244,0.031-0.371l77.005-33.81c0,0-9.516,105.041,2.627,145.36    C899.918,553.601,901.375,560.165,902.624,567.28z"></path>
		<path fill="#163560" d="M848.413,674.38c0,0-1.374,22.14-5.654,22.457c-0.57,0.041-21.724,0.041-21.724,0.041l-27.007-0.156    c0,0,0.179-6.507,8.074-7.882c7.891-1.376,21.104-6.923,25.886-17.356C833.018,660.51,848.413,674.38,848.413,674.38z"></path>
		<path fill="#2B478B" d="M804.752,405.077c0,0-1,68.067,10.778,151.646c11.776,83.576,7.783,119.053,7.783,119.053    s8.093,2.622,11.358,2.886c8.319,0.681,16.85-1.947,16.85-1.947s16.856-83.607,12.024-125.441    c-4.835-41.83,23.082-143.544,23.082-143.544L804.752,405.077z"></path>
		<path fill="#FFB27D" d="M860.839,243.104l-13.503,11.857l-22.073-0.974c0.053-1.778,0.459-9.175,0.83-15.874    c0.025-0.396,0.05-0.791,0.068-1.178c0.324-5.702,0.61-10.6,0.61-10.6l18.833-11.699l7.024-4.361    c-0.004,0.12,0.288,6.236,0.334,7.129C853.766,233.256,860.839,243.104,860.839,243.104z"></path>
		<path fill="#ABDDDA" d="M800.263,408.022c0.31,35.929,2.702,119.979,4.469,121.686c18.712,18.066,101.022-4.95,105.388-24.851    c4.357-19.898-16.585-255.165-48.547-264.56c-6.632-1.946-42.094,9.517-42.094,9.517s-5.56,14.549-9.207,33.084    c-1.351,6.868-5.766,55.869-8.34,88.615c-0.682,8.729-1.237,16.298-1.564,21.61C800.232,395.317,800.203,400.665,800.263,408.022z    "></path>
		<path fill="#FCA56B" d="M851.495,217.895c-3.356,8.095-18.881,16.876-25.402,20.22c0.025-0.396,0.05-0.791,0.068-1.178    c0.324-5.702,0.61-10.6,0.61-10.6l18.833-11.699C850.035,213.951,852.878,214.563,851.495,217.895z"></path>
		<path fill="#FFB27D" d="M819.806,227.134c0,0,34.082,3.169,35.729-18.087c1.646-21.255,7.154-35.162-14.537-38.083    c-21.689-2.922-26.554,4.861-28.827,11.821C809.895,189.747,810.982,225.763,819.806,227.134z"></path>
		<path fill="#163560" d="M813.016,180.592c0,0,6.989,22.839,11.588,20.805c4.6-2.033,8.804-3.713,9.591,3.453    c0.79,7.165-4.162,16.686,10.937,14.771c15.097-1.917,28.279-44.706,22.664-51.082    C851.588,150.143,790.597,158.715,813.016,180.592z"></path>
		<path fill="#91CECF" d="M828.171,240.816c0.422-0.178,24.325-10.9,27.121-9.979c2.798,0.924,6.281,9.463,6.281,9.463    l-42.093,9.516C819.48,249.816,822.795,243.08,828.171,240.816z"></path>
		<path fill="#91CECF" d="M800.263,433.761c64.047-46.313,69.027-119.722,69.027-119.722    c-30.472,17.191-59.407,45.605-68.798,76.842c-0.677,8.729,0.202,22.671-0.125,27.98    C800.232,421.056,800.203,426.4,800.263,433.761z"></path>
		<path fill="#FFB27D" d="M760.051,410.065c0,0-0.804-0.64-2.597-0.786c-1.552-0.52-5.862-2.419-6.605-3.091    c-2.342-2.126-3.16,0.138-1.527,2.394c0.354,0.488,1.622,1.322,2.062,1.788c-3.504,1.323-8.184,4.057-14.262,9.392    c0,0-4.866,3.924,1.706,4.778c4.396,0.57,6.054-1.064,12.259-0.357c6.207,0.708,12.227-1.515,14.432-5.563l4.084-3.234    l-3.479-8.199L760.051,410.065z"></path>
		<path fill="#ABDDDA" d="M842.089,251.515c0,0,67.455-3.238,6.454,110.252c-9.759,18.152-79.47,57.59-79.47,57.59    s-6.553-7.094-4.075-13.022c0,0,45.395-51.663,51.479-53.765c5.396-1.865,4.283-64.767,9.109-79.936    C830.413,257.463,842.089,251.515,842.089,251.515z"></path>
	</g>
	<g>
		<g>
			<path opacity="0.5" fill="#C0D8FB" d="M762.278,695.683l-48.902-0.015l-25.865-0.01c-10.038-0.006-18.248-8.222-18.248-18.268     l0.059-180.688c0.003-10.038,8.212-18.252,18.255-18.246l22.941,0.006l51.828,0.014c10.037,0,18.247,8.217,18.245,18.261     l-0.054,180.695C780.532,687.47,772.32,695.683,762.278,695.683z"></path>
			<path fill="#AFCDFB" d="M772.647,644.454l-1.297-9.512l0,0l-1.299-9.513c-0.331-2.426-1.627-4.5-3.445-5.88     c-1.816-1.382-4.16-2.075-6.589-1.746c-0.267,0.039-0.53,0.089-0.79,0.148c0.889-1.287,1.394-2.735,1.533-4.21     c1.65,3.956,5.989,6.271,10.288,5.243c4.771-1.141,7.734-5.971,6.594-10.737l-2.234-9.337l0,0l-2.233-9.339     c-0.569-2.382-2.065-4.315-4.012-5.511c-1.943-1.192-4.343-1.65-6.729-1.082c-4.766,1.143-7.731,5.977-6.593,10.741l3.367,14.068     c-0.51-0.734-1.138-1.404-1.884-1.975c-1.534-1.176-3.341-1.759-5.144-1.813c0.881-1.141,1.465-2.47,1.72-3.856     c0.335-1.817,0.102-3.734-0.732-5.469c1.009-3.339,0.001-7.117-2.842-9.468l-14.8-12.232c-3.779-3.123-9.422-2.588-12.545,1.192     c-2.888,3.497-2.641,8.582,0.401,11.798c-0.784-0.002-1.581,0.088-2.371,0.306l-9.262,2.534l0,0l-9.261,2.531     c-3.22,0.885-5.548,3.451-6.298,6.493l-0.974-2.325l0,0l-3.697-8.859c-1.89-4.523-7.134-6.678-11.655-4.79     c-4.527,1.893-6.68,7.135-4.789,11.661l3.698,8.856l0,0l2.372,5.676c-3.142,1.251-5.449,4.241-5.629,7.824l-0.485,9.586l0,0     l-0.484,9.591c-0.124,2.443,0.765,4.723,2.296,6.416c1.531,1.695,3.704,2.81,6.152,2.935c1.046,0.054,2.057-0.089,3.008-0.38     c-0.923,1.854-1.179,3.992-0.709,6.022c-1.643,0.948-3,2.413-3.777,4.291l-3.666,8.871l0,0l-3.668,8.876     c-0.936,2.262-0.859,4.705,0.018,6.814c0.877,2.108,2.549,3.887,4.816,4.823c3.532,1.462,7.49,0.448,9.952-2.21     c0.579,1.369,1.505,2.618,2.77,3.583c3.892,2.98,9.51,2.233,12.49-1.658l5.832-7.624l0,0l5.837-7.624     c0.792-1.035,1.315-2.195,1.589-3.39c2.03,0.198,4.137-0.277,5.938-1.52l1.53-1.056l-2.119,2.767l0,0l-5.834,7.622     c-2.98,3.894-2.233,9.512,1.661,12.49c3.894,2.979,9.512,2.235,12.491-1.659l5.834-7.622l0,0l5.839-7.623     c0.071-0.099,0.134-0.203,0.204-0.305c0.471,0.759,1.048,1.434,1.711,2.012l-2.08,2.714c-2.979,3.893-2.233,9.513,1.66,12.491     c3.894,2.98,9.511,2.235,12.492-1.661l11.669-15.245c1.49-1.94,2.046-4.322,1.746-6.586c-0.301-2.264-1.458-4.416-3.404-5.905     c-0.667-0.509-1.386-0.901-2.129-1.196c0.108-0.01,0.217-0.012,0.324-0.027C769.879,653.825,773.309,649.31,772.647,644.454z      M692.346,635.949l0.167-3.271c0.562,0.952,1.307,1.815,2.232,2.522c0.347,0.266,0.712,0.493,1.085,0.701l-4.082,2.817     C692.086,637.854,692.298,636.925,692.346,635.949z M752.394,627.838l1.747,12.79c-0.757-1.538-1.928-2.8-3.344-3.667     c-1.722-1.056-3.8-1.535-5.908-1.234c0.912-0.556,1.741-1.277,2.424-2.172l5.013-6.545     C752.336,627.285,752.356,627.561,752.394,627.838z M732.125,593.287l2.247,1.855l-2.313,1.593     C732.304,595.626,732.337,594.456,732.125,593.287z M734.065,621.546c-0.229-1.388-0.779-2.679-1.582-3.782     c0.664-0.25,1.312-0.572,1.92-0.992l7.021-4.846L734.065,621.546z M739.891,638.22c-1.88-1.572-4.323-2.291-6.716-2.027     l0.188-2.4c0.425,0.519,0.907,0.998,1.462,1.424c1.972,1.507,4.387,2.06,6.68,1.729     C740.911,637.306,740.378,637.739,739.891,638.22z M721.939,604.492c-1.956,2.95-2.057,6.923,0.068,10.002     c0.038,0.056,0.084,0.107,0.124,0.162c-0.648,0.248-1.265,0.564-1.831,0.947c0.403-1.268,0.522-2.599,0.352-3.897     c-0.299-2.264-1.459-4.412-3.405-5.903c-0.009-0.008-0.018-0.012-0.027-0.018L721.939,604.492z M713.07,625.919l3.439-4.489     c-0.052,0.278-0.09,0.56-0.113,0.843l-0.65,8.246c-1.286-1.164-2.864-1.903-4.527-2.182L713.07,625.919L713.07,625.919z      M696.98,663.584l1.008-2.44c0.738-1.78,0.84-3.671,0.43-5.42c0.204-0.12,0.404-0.237,0.603-0.376l15.807-10.899     c0.102-0.069,0.193-0.15,0.29-0.222c0.214,0.867,0.556,1.685,1.006,2.438l-2.813,1.938c-1.895,1.306-3.115,3.23-3.601,5.317     c-2.97-0.287-6.022,0.905-7.96,3.436L696.98,663.584z M738.908,652.599l0.493,2.062c-0.795-0.356-1.625-0.592-2.468-0.699     L738.908,652.599z M757.729,654.679l-0.686-2.868l0,0l-0.132-0.548c0.969,1.182,2.222,2.11,3.643,2.675     C759.582,654.031,758.625,654.274,757.729,654.679z M703.754,608.771l-4.835,6.316l0,0l-5.834,7.619     c-0.026,0.039-0.047,0.074-0.076,0.108l0.31-6.042c0.005-0.154,0-0.305,0-0.459c0.273-0.086,0.545-0.183,0.814-0.297     c3.63-1.514,5.727-5.19,5.443-8.918C700.796,607.995,702.233,608.579,703.754,608.771z"></path>
			<path opacity="0.5" fill="#AFCDFB" d="M713.376,695.668l-25.865-0.01c-10.038-0.006-18.248-8.222-18.248-18.268l0.059-180.688     c0.003-10.038,8.212-18.252,18.255-18.246l22.941,0.006c1.893,3.248,2.995,7.131,2.993,11.288l-0.061,204.091     C713.45,694.458,713.425,695.066,713.376,695.668z"></path>
			<path fill="#F99746" d="M779.392,486.995l-69.452-0.021l-39.413-0.014c-1.955,0-3.549-1.595-3.547-3.553l0.004-17.016     c0-1.949,1.595-3.548,3.548-3.548l39.361,0.011c0.005,0.002,0.005,0.002,0.009,0.002l69.497,0.021c1.952,0,3.55,1.597,3.55,3.552     l-0.004,17.016C782.94,485.397,781.346,486.995,779.392,486.995z"></path>
			<path fill="#EF7E29" d="M709.939,486.974l-39.413-0.014c-1.955,0-3.549-1.595-3.547-3.553l0.004-17.016     c0-1.949,1.595-3.548,3.548-3.548l39.361,0.011c0.005,0.002,0.005,0.002,0.009,0.002c1.946,0.004,3.54,1.601,3.54,3.548     l-0.006,17.019C713.433,485.359,711.87,486.945,709.939,486.974z"></path>
		</g>
	</g>
	<g>
		<path fill="#EF7E29" d="M1035.191,684.862c0,3.289-1.346,6.279-3.519,8.451c-2.171,2.171-5.159,3.52-8.451,3.52h-56.524    c-6.581,0-11.968-5.393-11.968-11.971c0-3.292,1.349-6.284,3.515-8.454c2.172-2.165,5.164-3.514,8.453-3.514h56.524    C1029.802,672.895,1035.191,678.279,1035.191,684.862z"></path>
		<path fill="#F99746" d="M1006.032,684.862c0,3.289-1.346,6.279-3.514,8.451c-2.171,2.171-5.161,3.52-8.45,3.52h-27.371    c-6.581,0-11.968-5.393-11.968-11.971c0-3.292,1.349-6.284,3.515-8.454c2.172-2.165,5.164-3.514,8.453-3.514h27.371    C1000.647,672.895,1006.032,678.279,1006.032,684.862z"></path>
		<path opacity="0.5" fill="#FFE2CC" d="M1024.18,679.323h-53.916c-0.934,0-1.695-0.763-1.695-1.695v-0.384    c0-0.932,0.762-1.695,1.695-1.695h53.916c0.933,0,1.695,0.764,1.695,1.695v0.384    C1025.875,678.561,1025.112,679.323,1024.18,679.323z"></path>
	</g>
	<g>
		<g>
			<g>
				<g>
					<path fill="#FCECDB" d="M519.408,370.988v168.536c0,10.341-8.46,18.805-18.805,18.805H400.427c-2.68,0-5.231-0.568-7.547-1.59       c-6.612-2.921-11.259-9.555-11.259-17.215V370.988c0-10.348,8.465-18.808,18.806-18.808h100.176       C510.948,352.181,519.408,360.641,519.408,370.988z"></path>
					<path fill="#F7E0CB" d="M475.034,415.56c-10.589-3.976-15.943-15.778-11.97-26.361c3.973-10.582,15.772-15.942,26.36-11.967       c10.583,3.972,15.942,15.776,11.968,26.357C497.42,414.173,485.614,419.532,475.034,415.56z"></path>
					<path fill="#EFCBAB" d="M501.393,403.589l-38.329-14.391c3.973-10.582,15.772-15.942,26.36-11.967       C500.007,381.203,505.367,393.008,501.393,403.589z"></path>
					<path fill="#F7E0CB" d="M405.854,412.253c-8.761-7.154-10.06-20.048-2.912-28.805c7.148-8.755,20.042-10.065,28.803-2.912       c8.757,7.148,10.061,20.048,2.912,28.804C427.51,418.098,414.611,419.402,405.854,412.253z"></path>
					<path fill="#EFCBAB" d="M434.658,409.34l-31.715-25.892c7.148-8.755,20.042-10.065,28.803-2.912       C440.503,387.685,441.807,400.584,434.658,409.34z"></path>
					<path fill="#F7E0CB" d="M475.034,540.434c-10.589-3.973-15.943-15.777-11.97-26.359c3.973-10.581,15.772-15.945,26.36-11.966       c10.583,3.973,15.942,15.773,11.968,26.358C497.42,539.047,485.614,544.408,475.034,540.434z"></path>
					<path fill="#EFCBAB" d="M501.393,529.856l-38.329-14.393c3.973-10.579,15.772-15.941,26.36-11.967       C500.007,507.47,505.367,519.273,501.393,529.856z"></path>
					<path fill="#F7E0CB" d="M405.854,537.126c-8.761-7.152-10.06-20.046-2.912-28.803c7.148-8.755,20.042-10.063,28.803-2.909       c8.757,7.148,10.061,20.046,2.912,28.803C427.51,542.974,414.611,544.273,405.854,537.126z"></path>
					<path fill="#EFCBAB" d="M434.658,535.607l-31.715-25.891c7.148-8.757,20.042-10.063,28.803-2.913       C440.503,513.953,441.807,526.851,434.658,535.607z"></path>
					<g>
						<path fill="#F7E0CB" d="M490.996,479.656c-10.221,4.844-22.424,0.483-27.266-9.732c-4.84-10.216-0.489-22.423,9.732-27.265        c10.214-4.844,22.423-0.486,27.266,9.73C505.569,462.605,501.21,474.814,490.996,479.656z"></path>
						<path fill="#EFCBAB" d="M500.728,452.39l-36.998,17.534c-4.84-10.216-0.489-22.423,9.732-27.265        C483.677,437.815,495.885,442.173,500.728,452.39z"></path>
					</g>
					<path fill="#F7E0CB" d="M399.795,453.551c4.203-10.501,16.118-15.601,26.612-11.399c10.494,4.2,15.601,16.114,11.398,26.612       c-4.201,10.494-16.118,15.598-26.613,11.399C400.698,475.961,395.596,464.045,399.795,453.551z"></path>
					<path fill="#EFCBAB" d="M411.193,480.163l15.214-38.012c10.494,4.2,15.601,16.114,11.398,26.612       C433.605,479.258,421.688,484.361,411.193,480.163z"></path>
				</g>
			</g>
			<path opacity="0.5" fill="#EFCBAB" d="M519.408,394.053v146.66c0,9.688-7.74,17.616-17.208,17.616h-91.665     c-2.452,0-4.787-0.528-6.906-1.493V414.354c0-5.826,2.429-11.101,6.305-14.812c1.432-1.372,3.063-2.533,4.844-3.428     c2.625-1.32,5.57-2.063,8.679-2.063H519.408z"></path>
		</g>
		<g>
			<g>
				<path fill="#FCECDB" d="M406.9,582.344V413.807c0-10.346,8.462-18.808,18.807-18.808h100.175      c10.344,0,18.806,8.462,18.806,18.808v168.537c0,10.342-8.462,18.804-18.806,18.804H425.707      C415.362,601.147,406.9,592.686,406.9,582.344z"></path>
				<path fill="#F7E0CB" d="M500.313,458.379c-10.589-3.976-15.943-15.777-11.969-26.36c3.973-10.582,15.771-15.946,26.36-11.969      c10.583,3.974,15.943,15.779,11.969,26.36C522.7,456.993,510.896,462.352,500.313,458.379z"></path>
				<path fill="#EFCBAB" d="M526.673,446.41l-38.329-14.392c3.973-10.582,15.771-15.946,26.36-11.969      C525.287,424.023,530.647,435.829,526.673,446.41z"></path>
				<path fill="#F7E0CB" d="M431.133,455.071c-8.76-7.15-10.06-20.045-2.911-28.805c7.147-8.755,20.041-10.063,28.803-2.91      c8.756,7.149,10.061,20.047,2.912,28.803C452.79,460.916,439.891,462.219,431.133,455.071z"></path>
				<path fill="#EFCBAB" d="M459.937,452.159l-31.714-25.893c7.147-8.755,20.041-10.063,28.803-2.91      C465.781,430.506,467.086,443.403,459.937,452.159z"></path>
				<path fill="#F7E0CB" d="M500.313,583.253c-10.589-3.973-15.943-15.776-11.969-26.359c3.973-10.581,15.771-15.943,26.36-11.969      c10.583,3.973,15.943,15.778,11.969,26.361C522.7,581.867,510.896,587.229,500.313,583.253z"></path>
				<path fill="#EFCBAB" d="M526.673,572.675l-38.329-14.39c3.973-10.582,15.771-15.945,26.36-11.967      C525.287,550.291,530.647,562.096,526.673,572.675z"></path>
				<path fill="#F7E0CB" d="M431.133,579.948c-8.76-7.151-10.06-20.049-2.911-28.802c7.147-8.759,20.041-10.065,28.803-2.915      c8.756,7.149,10.061,20.047,2.912,28.804C452.79,585.792,439.891,587.095,431.133,579.948z"></path>
				<path fill="#EFCBAB" d="M459.937,578.427l-31.714-25.894c7.147-8.753,20.041-10.063,28.803-2.911      C465.781,556.771,467.086,569.67,459.937,578.427z"></path>
				<g>
					<path fill="#F7E0CB" d="M516.274,522.477c-10.219,4.842-22.422,0.482-27.265-9.733c-4.841-10.213-0.487-22.421,9.732-27.265       c10.215-4.842,22.425-0.483,27.267,9.73C530.85,505.424,526.491,517.635,516.274,522.477z"></path>
					<path fill="#EFCBAB" d="M526.008,495.209l-36.999,17.534c-4.841-10.213-0.487-22.421,9.732-27.265       C508.957,480.637,521.166,484.995,526.008,495.209z"></path>
				</g>
				<path fill="#F7E0CB" d="M425.074,496.37c4.203-10.5,16.118-15.599,26.613-11.4c10.495,4.202,15.601,16.113,11.398,26.612      c-4.2,10.496-16.118,15.602-26.612,11.397C425.979,518.781,420.874,506.867,425.074,496.37z"></path>
				<path fill="#EFCBAB" d="M436.473,522.979l15.214-38.01c10.495,4.202,15.601,16.113,11.398,26.612      C458.885,522.078,446.967,527.184,436.473,522.979z"></path>
			</g>
		</g>
		<g>
			<rect x="371.847" y="462.227" fill="#EF7E29" width="157.336" height="234.803"></rect>
			<rect x="393.763" y="462.225" fill="#F99746" width="157.335" height="234.805"></rect>
			<polygon fill="#D8661A" points="393.763,475.851 386.223,487.579 371.847,487.579 371.847,462.227 393.763,462.227    "></polygon>
			<polygon fill="#F99746" points="380.321,480.726 358.408,480.726 371.847,462.227 393.763,462.227    "></polygon>
			<polygon opacity="0.5" fill="#EFCBAB" points="474.91,697.777 393.763,697.777 393.763,472.924 474.91,480.726    "></polygon>
			<polygon fill="#EF7E29" points="551.099,480.726 538.333,487.579 401.347,487.579 393.763,475.851 393.763,462.225    "></polygon>
			<polygon fill="#F99746" points="562.21,480.726 404.876,480.726 393.763,462.227 551.097,462.227    "></polygon>
		</g>
	</g>
	<g>
		<path fill="#ED985F" d="M216.701,401.862c-4.165-13.372-22.273-15.879-29.56-3.918c-1.31,2.15-2.139,4.623-2.211,7.456    c-0.401,15.679,30.52,76.363,34.623,81.731c7.472,9.772,52.574,33.276,52.574,33.276l9.583-1.397c0,0-5.418-3.406-11.029-9.007    c-11.587-11.57-28.481-30.375-31.575-32.979C233.794,472.552,224.608,427.252,216.701,401.862z"></path>
		<g>
			<g>
				<path fill="#FCECDB" d="M484.911,696.48h-205.76c-12.738,0-23.16-10.423-23.16-23.16V548.742      c0-12.74,10.421-23.159,23.16-23.159h205.76c12.737,0,23.16,10.419,23.16,23.159V673.32      C508.07,686.058,497.647,696.48,484.911,696.48z"></path>
				<path fill="#F7E0CB" d="M333.491,580.619c-4.861,13.134-19.293,19.773-32.234,14.845c-12.939-4.927-19.495-19.56-14.634-32.692      c4.858-13.126,19.292-19.775,32.232-14.845C331.796,552.854,338.35,567.494,333.491,580.619z"></path>
				<path fill="#EFCBAB" d="M318.855,547.927l-17.599,47.537c-12.939-4.927-19.495-19.56-14.634-32.692      C291.481,549.646,305.916,542.996,318.855,547.927z"></path>
				<path fill="#F7E0CB" d="M329.448,666.422c-8.746,10.867-24.512,12.478-35.22,3.613c-10.707-8.867-12.307-24.858-3.563-35.725      c8.743-10.861,24.515-12.479,35.221-3.613C336.594,639.564,338.189,655.562,329.448,666.422z"></path>
				<path fill="#EFCBAB" d="M325.886,630.697l-31.659,39.338c-10.707-8.867-12.307-24.858-3.563-35.725      C299.408,623.449,315.18,621.831,325.886,630.697z"></path>
				<path fill="#F7E0CB" d="M486.188,580.619c-4.861,13.134-19.294,19.773-32.234,14.845c-12.94-4.927-19.496-19.56-14.634-32.692      c4.858-13.126,19.292-19.775,32.232-14.845C484.493,552.854,491.047,567.494,486.188,580.619z"></path>
				<path fill="#EFCBAB" d="M471.559,547.927l-17.598,47.537c-12.94-4.927-19.497-19.56-14.635-32.692      C444.186,549.646,458.619,542.996,471.559,547.927z"></path>
				<path fill="#F7E0CB" d="M482.144,666.422c-8.445,10.493-23.436,12.358-34.099,4.479c-0.381-0.271-0.75-0.563-1.12-0.867      c-10.71-8.865-12.305-24.854-3.561-35.723c8.738-10.865,24.51-12.481,35.219-3.613c0.366,0.303,0.718,0.611,1.064,0.933      C489.39,640.646,490.588,655.932,482.144,666.422z"></path>
				<path fill="#EFCBAB" d="M479.647,631.63L448.044,670.9c-0.381-0.271-0.75-0.563-1.12-0.867      c-10.71-8.865-12.305-24.854-3.561-35.723c8.738-10.865,24.51-12.481,35.219-3.613C478.948,631,479.3,631.309,479.647,631.63z"></path>
				<g>
					<path fill="#F7E0CB" d="M411.868,560.822c5.923,12.676,0.59,27.81-11.9,33.817c-12.491,6.003-27.418,0.603-33.341-12.071       c-5.919-12.668-0.59-27.812,11.9-33.817C391.019,542.748,405.949,548.154,411.868,560.822z"></path>
					<path fill="#EFCBAB" d="M378.527,548.751l21.441,45.889c-12.491,6.003-27.418,0.603-33.341-12.071       C360.708,569.9,366.038,554.757,378.527,548.751z"></path>
				</g>
				<path fill="#F7E0CB" d="M379.947,673.938c-12.84-5.214-19.074-19.991-13.938-33.007c5.135-13.015,19.7-19.352,32.539-14.138      c12.833,5.21,19.075,19.987,13.939,33.007C407.351,672.817,392.779,679.148,379.947,673.938z"></path>
				<path fill="#EFCBAB" d="M412.488,659.801l-46.478-18.869c5.135-13.015,19.7-19.352,32.539-14.138      C411.382,632.004,417.624,646.781,412.488,659.801z"></path>
			</g>
		</g>
		<path fill="#B5453C" d="M229.792,325.157c0.25-1.007-21.877,10.002-23,11.245c-10.379,11.513-7.419,26.534-1.48,26.679    c3.808,0.093,3.07,6.424,3.07,6.424l42.429-17.948C250.811,351.557,245.701,321.768,229.792,325.157z"></path>
		<path fill="#B5453C" d="M235.017,327.48c0,0,1.516-16.528-16.951-16.528c0,0,5.595,1.519,8.49,4.554    c0,0-11.777-6.914-24.597,3.711c-12.817,10.626-4.854,37.271-8.75,42.333c-3.898,5.058-19.078,6.072-17.223,22.432    c1.855,16.359,48.174,36.85,45.199,50.383c0,0,18.152-26.682,5.173-38.86c0,0,6.326,5.96,6.971,13.044    c0,0,1.717-13.831-7.084-18.254c-7.787-3.914-14.166-18.229-13.492-20.789C213.428,366.947,235.017,327.48,235.017,327.48z"></path>
		<path fill="#2B478B" d="M183.145,684.864l-9.181-1.351c0,0-30.872-24.532-35.469-70.309c-0.47-4.659-0.567-9.387-0.22-14.155    c0.041-0.549-0.021-1.097-0.32-1.563c0-0.004-0.003-0.004-0.01-0.012c-0.988-1.517-3.448-5.31-6.777-10.707    c-3.281-5.317-8.898-15.367-15.078-26.646C104.958,539.81,92,515.516,87.554,507.776c-14.165-24.66-7.337-41.242-7.337-41.242    s39.513-3.905,50.342-13.377l3.897,6.011c0,0,8.563,37.901,8.158,38.075c0.421,1.289,0.849,2.599,1.284,3.935    c6.757,20.854,14.529,46.917,18.765,68.145c2.381,11.948,3.644,22.35,2.965,29.44c-0.233,2.436,0.052,6.169,0.698,10.785    C170.15,636.749,183.145,684.864,183.145,684.864z"></path>
		<path fill="#233862" d="M202.403,696.48h-38.305c0,0-0.918-5.84,1.083-10.268c1.917-4.252,4.649-4.387,0.348-11.045    c2.436,2.502,10.26,3.541,15.797,2.795c0.678,1.101,4.374,8.481,6.642,10.107C190.47,689.87,201.633,689.229,202.403,696.48z"></path>
		<path fill="#233862" d="M143.897,501.178c-3.345,18.457-11.248,49.167-27.808,58.945C104.958,539.81,92,515.516,87.554,507.776    c-14.165-24.66-7.337-41.242-7.337-41.242s39.513-3.905,50.342-13.377l3.897,6.011c0,0,8.563,37.901,8.158,38.075    C143.035,498.532,143.463,499.842,143.897,501.178z"></path>
		<path fill="#2B478B" d="M117.033,469.382l0.129-7.163c-14.272,1.801-49.216-17.058-49.216-17.058s-14.933,9.935-16.977,38.299    c-0.998,13.845-7.31,72.394-8.008,89.878c-0.255,6.335-0.34,10.857-0.369,12.664c0.003,0.01,0.003,0.014,0.002,0.018    c-0.009,0.551-0.268,1.038-0.607,1.474c-2.953,3.755-5.515,7.732-7.733,11.857c-21.782,40.525-10.392,95.591-10.392,95.591    l5.059-1.289c0,0,18.417-57.082,30.454-81.772c2.043-4.188,3.899-7.445,5.452-9.333c4.525-5.495,9.297-14.83,14-26.064    c8.893-21.242,17.525-49.266,23.681-70.97C102.942,505.594,117.033,469.382,117.033,469.382z"></path>
		<path fill="#FFB27D" d="M200.563,421.567c-23.334-5.356-8.426-38.144-7.074-37.566c3.232-0.659,10.334-6.335,16.686-17.424    l0.858,0.744l14.332,12.566c0,0-3.313,4.888-6.1,9.674c-2.178,3.747-4.029,7.438-3.735,8.706    C216.684,399.174,206.789,422.998,200.563,421.567z"></path>
		<path fill="#91CECF" d="M215.296,397.211c0,0,4.104,8.097,6.292,15.11c2.189,7.013,7.666,29.318,7.666,29.318    s-11.295,12.89-27.007,12.139c0,0-8.45-13.226-5.471-25.171C199.752,416.666,215.296,397.211,215.296,397.211z"></path>
		<path fill="#ED985F" d="M225.365,379.891c0,0-3.314,4.882-6.1,9.675c-8.911-5.494-8.921-16.525-8.234-22.24L225.365,379.891z"></path>
		<path fill="#FFB27D" d="M225.762,386.184c0,0-21.635-12.038-13.932-25.396c7.706-13.357,10.102-23.909,24.241-16.787    c14.14,7.122,13.86,13.755,12.373,18.837C246.957,367.92,231.589,388.972,225.762,386.184z"></path>
		<path fill="#B5453C" d="M252.099,355.049c-0.99-5.934-4.004-6.5-6.104-6.104c-7.991-13.214-21.044-8.058-21.044-8.058    c-6.972,8.752-17.052,10.244-17.052,10.244s2.51,4.67,12.855,7.562c3.16,0.884,6.745,0.35,10.204-0.814    c-7.177,4.002-14.682,5.534-14.682,5.534c13.631,1.248,26.602-11.214,27.947-12.547c0.629,1.931,1.732,5.973,1.072,8.93    c-0.898,4.018-4.463,11.293-2.287,12.235C243.008,372.031,253.585,363.94,252.099,355.049z"></path>
		<path fill="#233862" d="M54.324,696.48H16.019c0,0-0.918-5.84,1.082-10.268c1.918-4.252,4.92-6.181,4.201-11.324    c2.435,2.506,6.401,5.313,11.939,4.565c0.679,1.104,4.38,6.99,6.646,8.616C42.391,689.87,53.553,689.229,54.324,696.48z"></path>
		<path fill="#ABDDDA" d="M203.31,447.563c-4.929,1.721-11.844,2.667-18.92,3.431c-10.073,1.102-20.473,1.852-25.92,4.026    c-1.063,0.424-4.162,1.72-7.265,3.967v0.008c0,0-0.077,0.047-0.215,0.158c-1.028,0.748-2.057,1.616-3.002,2.595    c-1.446,1.486-2.705,3.222-3.514,5.214c-1.998,4.935,0.647,18.618,2.343,26.098c0.684,3.009-0.737,6.119-3.479,7.539    c-3.83,1.982-7.595,3.813-11.293,5.483c-0.197,0.087-0.387,0.173-0.582,0.262c0.035-0.761,0.046-1.517,0.046-2.252    c0.007-5.162-0.648-9.456-0.648-9.456c-0.909,5.207-4.34,10.833-7.539,15.163C71.917,530.425,36,521.458,36.59,511.185    c2.026-35.681,26.085-66.023,26.085-66.023c44.87-52.177,135.633-65.914,135.633-65.914s4.347-0.522,9.592,5.78    c7.546,9.08,7.921,11.447,7.921,11.447S217.813,442.503,203.31,447.563z"></path>
		<path fill="#91CECF" d="M184.386,450.993c-10.073,1.102-20.472,1.852-25.919,4.023c-2.226-33.263,13.473-58.286,13.473-58.286    S182.18,438.406,184.386,450.993z"></path>
		<path fill="#FFB27D" d="M194.965,390.294c0,0-25.244,2.494-27.268,18.897c-2.026,16.403,24.201,83.214,27.957,89.262    c6.838,11.013,47.1,48.767,47.1,48.767l7.422-4.499c0,0-28.56-48.347-32.981-52.872    C210.254,482.747,203.512,395.977,194.965,390.294z"></path>
		<path fill="#ABDDDA" d="M207.898,421.631c0,0,2.591-42.293-29.779-32.065c-32.37,10.226,5.025,82.968,5.025,82.968    s18.998-0.938,25.736-17.517L207.898,421.631z"></path>
		<path fill="#91CECF" d="M146.815,493.059c0.684,3.009-0.737,6.119-3.479,7.539c-3.83,1.982-7.595,3.813-11.293,5.483    c-0.197-0.628-0.374-1.291-0.536-1.99c-0.583-2.605-0.85-5.723-0.648-9.456c0.856-15.794,11.614-27.751,17.126-32.888    c-1.446,1.486-2.705,3.222-3.514,5.214C142.475,471.896,145.12,485.579,146.815,493.059z"></path>
		<path fill="#91CECF" d="M198.309,379.247c0,0,3.953-4.996,6.623-4.834c0,0,10.802,15.122,10.89,22.062    C215.821,396.475,202.348,378.547,198.309,379.247z"></path>
		<path fill="#ED985F" d="M301.94,525.577c0,0-5.746,0.105-6.985-0.071c-1.215-0.178-2.843-0.707-4.478-0.765    c-1.608-0.06-3.086,0.464-4.598,0.772c-0.224,0.046-0.454,0.063-0.683,0.063h-9.526c0,0-0.955-0.453-2.002-2.139    c-0.449-0.729-0.513-2.46-1.541-3.03c-5.768-3.22,9.583-1.397,9.583-1.397s9.638-0.175,10.529,0.487    C293.822,520.689,302.297,525.124,301.94,525.577z"></path>
		<path fill="#ED985F" d="M275.671,525.583c0,0,5.847,1.688,7.438,2.771l1.677,1.058c0,0,0.97-1.083-0.557-2.287    c-0.808-0.636-3.035-2.493-3.107-4.622C281.048,520.369,274.446,522.23,275.671,525.583z"></path>
		<path fill="#FFB27D" d="M250.176,542.721c0,0,4.18,3.713,7.357,4.499c3.178,0.784,6.791,9.886,7.369,11.187    c0.577,1.301-3.035-0.578-4.479-2.794c-1.445-2.214-2.433-3.083-2.854-2.601c-0.421,0.483,0.252,6.549,2.661,9.922    c2.408,3.372,3.854,6.356,2.119,6.162c-1.732-0.189-12.041-2.695-14.158-8.956c-2.12-6.262-0.564-6.481-5.437-12.92    C237.885,540.778,250.176,542.721,250.176,542.721z"></path>
	</g>
	<g>
		<g>
			<path fill="#2B478B" d="M711.219,683.034c0,3.622-1.482,6.917-3.871,9.306c-2.395,2.396-5.687,3.877-9.311,3.877h-62.252     c-7.25,0-13.178-5.935-13.178-13.183c0-3.624,1.482-6.919,3.869-9.31c2.39-2.386,5.684-3.871,9.309-3.871h62.252     C705.286,669.854,711.219,675.784,711.219,683.034z"></path>
			<path fill="#699FF0" d="M679.106,683.034c0,3.622-1.483,6.917-3.871,9.306c-2.39,2.396-5.684,3.877-9.309,3.877h-30.142     c-7.25,0-13.178-5.935-13.178-13.183c0-3.624,1.482-6.919,3.869-9.31c2.39-2.386,5.684-3.871,9.309-3.871h30.142     C673.176,669.854,679.106,675.784,679.106,683.034z"></path>
			<path opacity="0.4" fill="#E9F3FE" d="M699.091,676.935h-59.377c-1.026,0-1.871-0.838-1.871-1.867v-0.42     c0-1.031,0.845-1.867,1.871-1.867h59.377c1.028,0,1.869,0.836,1.869,1.867v0.42C700.96,676.097,700.119,676.935,699.091,676.935z     "></path>
		</g>
		<g>
			<path fill="#EF7E29" d="M658.097,645.695c1.723,3.437,1.881,7.264,0.751,10.664c-1.13,3.402-3.548,6.373-6.981,8.094     l-59.004,29.569c-6.873,3.44-15.308,0.634-18.755-6.237c-1.723-3.435-1.877-7.262-0.751-10.662     c1.13-3.396,3.549-6.367,6.984-8.088l59.002-29.569C646.216,636.024,654.657,638.826,658.097,645.695z"></path>
			<path fill="#F99746" d="M627.66,660.948c1.723,3.436,1.882,7.262,0.754,10.663c-1.133,3.402-3.547,6.371-6.982,8.09     l-28.569,14.321c-6.873,3.44-15.308,0.634-18.755-6.237c-1.723-3.435-1.877-7.262-0.751-10.662     c1.13-3.396,3.549-6.367,6.984-8.088l28.57-14.317C615.78,651.276,624.217,654.08,627.66,660.948z"></path>
			<path opacity="0.5" fill="#FFE2CC" d="M643.705,645.676l-56.281,28.205c-0.973,0.487-2.169,0.09-2.655-0.883l-0.201-0.398     c-0.488-0.976-0.09-2.172,0.883-2.659l56.28-28.205c0.976-0.487,2.17-0.091,2.657,0.885l0.202,0.398     C645.078,643.994,644.68,645.19,643.705,645.676z"></path>
		</g>
	</g>
</g>
<path fill="#2E3552" d="M1048.579,698.399H2.421c-0.635,0-1.155-0.521-1.155-1.155v-0.318c0-0.636,0.52-1.155,1.155-1.155h1046.158  c0.634,0,1.154,0.52,1.154,1.155v0.318C1049.733,697.879,1049.213,698.399,1048.579,698.399z"></path>
</svg>